<svg id="Capa_1" enable-background="new 0 0 512 512" height="512" viewBox="0 0 512 512" width="512" xmlns="http://www.w3.org/2000/svg"><path d="m497 512h-482c-8.284 0-15-6.716-15-15v-482c0-8.284 6.716-15 15-15h482c8.284 0 15 6.716 15 15v482c0 8.284-6.716 15-15 15z" fill="#3a559f"/><path d="m497 0h-241v512h241c8.284 0 15-6.716 15-15v-482c0-8.284-6.716-15-15-15z" fill="#23448e"/><path d="m280.681 205.261v-19.248c0-43.534 13.761-42.284 55.081-42.284h1.974c5.523 0 10-4.477 10-10v-48.404c0-5.5-4.5-10-10-10h-46.855c-44.753 0-81.37 36.616-81.37 81.37v19.007h-.149v29.559h-35.237c-5.523 0-10 4.477-10 10v46.755c0 5.523 4.477 10 10 10h35.237v154.658c0 5.523 4.477 10 10 10h51.249c5.523 0 10-4.477 10-10v-154.657h47.263c5.523 0 10-4.477 10-10l10-46.755c0-5.523-4.477-10-10-10h-57.193z" fill="#fff"/><path d="m337.874 205.261h-57.193v-19.248c0-43.534 13.761-42.284 55.081-42.284h1.974c5.523 0 10-4.477 10-10v-48.404c0-5.5-4.5-10-10-10h-46.855c-12.465 0-24.294 2.847-34.881 7.913v353.437h14.612c5.523 0 10-4.477 10-10v-154.658h47.263c5.523 0 10-4.477 10-10l10-46.755c-.001-5.524-4.478-10.001-10.001-10.001z" fill="#d7f2f9"/></svg>